<svg xmlns="http://www.w3.org/2000/svg" width="109.637" height="48" viewBox="0 0 109.637 48"><defs><style>.a{fill:#ef4136;}.b{fill:#00aeef;}</style></defs><path class="a" d="M511.748,118.535a17.778,17.778,0,1,1,17.778-17.777A17.778,17.778,0,0,1,511.748,118.535Zm0-28.991a11.213,11.213,0,1,0,11.213,11.213,11.213,11.213,0,0,0-11.213-11.213Z" transform="translate(-419.888 -70.535)"/><path class="a" d="M591.13,167.36v11.668l8.8-5.834Z" transform="translate(-502.477 -142.261)"/><path class="a" d="M590.27,177.9V165.75l9.163,6.072Zm.259-11.66v11.189l8.442-5.594Z" transform="translate(-501.746 -140.892)"/><path class="b" d="M0,118.428l12.839-18.9H1.54V90.32H31.535l-4.24,6.347-12.814,18.9H25.987A11.288,11.288,0,0,0,27.7,121.2v3.572H0Z" transform="translate(0 -76.775)"/><path class="b" d="M176.23,109.781V97.61l6.063-9.01h5.481v19.33c0,4.325,1.077,5.406,3.365,5.406,2.154,0,3.365-.811,4.846-2.974V88.6h11.548v33.871h-9.4l-.805-4.363h-.268c-2.687,3.172-5.777,5.155-10.348,5.155C179.319,123.265,176.23,117.977,176.23,109.781Z" transform="translate(-149.8 -75.313)"/><path class="b" d="M399,35.144V0h11.624V35.543c0,2.3,1.081,2.974,1.893,2.974a4.17,4.17,0,0,0,1.216-.135l1.35,8.515a14.363,14.363,0,0,1-5.676.946C401.563,47.85,399,42.713,399,35.144Z" transform="translate(-339.161)"/></svg>