<svg xmlns="http://www.w3.org/2000/svg" xmlns:xlink="http://www.w3.org/1999/xlink" width="24" height="24" viewBox="0 0 24 24"><defs><style>.a,.c,.e{fill:#fff;}.a{stroke:#707070;}.b{clip-path:url(#a);}.c{stroke-linecap:square;}.d,.e{stroke:none;}</style><clipPath id="a"><rect class="a" width="24" height="24" transform="translate(0)"/></clipPath></defs><g class="b"><g transform="translate(1.02 1.981)"><g transform="translate(0 7.719)"><g class="c" transform="translate(0 -9.486)"><path class="d" d="M 12.57197952270508 14.38664436340332 C 12.57195663452148 14.38664436340332 12.57195472717285 14.38664436340332 12.57193088531494 14.38664436340332 C 12.04996109008789 14.38663482666016 11.62530136108398 13.9632740020752 11.62530136108398 13.44291400909424 L 11.62530136108398 12.7297945022583 L 0.6433912515640259 12.7297945022583 C 0.1232012659311295 12.7297945022583 -0.2999987304210663 12.30659484863281 -0.2999987304210663 11.78641414642334 C -0.2999987304210663 11.26623439788818 0.1232012659311295 10.8430347442627 0.6433912515640259 10.8430347442627 L 11.62530136108398 10.8430347442627 L 11.62530136108398 10.12987422943115 C 11.62530136108398 9.609254837036133 12.0498514175415 9.185694694519043 12.57170104980469 9.185694694519043 C 12.7647008895874 9.185694694519043 12.95163154602051 9.24555492401123 13.11230087280273 9.358814239501953 L 15.46200084686279 11.01536464691162 C 15.71226119995117 11.19212436676025 15.86144161224365 11.48059463500977 15.86127090454102 11.78715419769287 C 15.86111164093018 12.09340476989746 15.71182155609131 12.38138484954834 15.46192169189453 12.55749416351318 L 13.11227130889893 14.21396446228027 C 12.95196056365967 14.32694053649902 12.76513481140137 14.38664436340332 12.57197952270508 14.38664436340332 Z"/><path class="e" d="M 12.571702003479 9.485691070556641 C 12.23752593994141 9.485659599304199 11.92530155181885 9.750777244567871 11.92530155181885 10.12987422943115 L 11.92530155181885 11.14303398132324 L 0.6433916091918945 11.14303398132324 C 0.2880611419677734 11.14303398132324 9.5367431640625e-07 11.4310941696167 9.5367431640625e-07 11.78641414642334 C 9.5367431640625e-07 12.14173412322998 0.2880611419677734 12.42979431152344 0.6433916091918945 12.42979431152344 L 11.92530155181885 12.42979431152344 L 11.92530155181885 13.44291400909424 C 11.92530155181885 13.82406330108643 12.23853015899658 14.08664798736572 12.57194423675537 14.08664798736572 C 12.69672966003418 14.08664798736572 12.82432651519775 14.04987716674805 12.93941116333008 13.96877479553223 L 15.28910160064697 12.31227397918701 C 15.65214157104492 12.05642414093018 15.65184116363525 11.51674461364746 15.28914165496826 11.26055431365967 L 12.93945121765137 9.60401439666748 C 12.82386684417725 9.522536277770996 12.69623470306396 9.485703468322754 12.571702003479 9.485691070556641 M 12.57164096832275 8.88569450378418 L 12.57169151306152 8.88569450378418 C 12.82696151733398 8.885714530944824 13.07367134094238 8.964534759521484 13.28516101837158 9.113624572753906 L 15.63486099243164 10.77017402648926 C 15.9648609161377 11.00326442718506 16.16149139404297 11.38339424133301 16.1612720489502 11.78731441497803 C 16.16106033325195 12.19092464447021 15.96422100067139 12.57051467895508 15.63474082946777 12.80271434783936 L 13.28513145446777 14.4591646194458 C 13.07392120361328 14.60800457000732 12.82734107971191 14.68664455413818 12.57194137573242 14.68664455413818 C 11.88454151153564 14.68664455413818 11.32530117034912 14.1287145614624 11.32530117034912 13.44291400909424 L 11.32530117034912 13.02979469299316 L 0.6433916091918945 13.02979469299316 C -0.04221916198730469 13.02979469299316 -0.5999994277954102 12.47201442718506 -0.5999994277954102 11.78641414642334 C -0.5999994277954102 11.10081481933594 -0.04221916198730469 10.54303455352783 0.6433916091918945 10.54303455352783 L 11.32530117034912 10.54303455352783 L 11.32530117034912 10.12987422943115 C 11.32530117034912 9.44383430480957 11.8844108581543 8.88569450378418 12.57164096832275 8.88569450378418 Z"/></g></g><g transform="translate(3.176 0)"><g class="c" transform="translate(-3.471 -1.05)"><path class="d" d="M 12.2365140914917 21.38903427124023 C 12.23634624481201 21.38903427124023 12.23660564422607 21.38903427124023 12.23643684387207 21.38903427124023 C 10.39681720733643 21.38903427124023 8.590017318725586 20.89824485778809 7.011357307434082 19.96971321105957 C 5.474437236785889 19.06573486328125 4.190427303314209 17.77258491516113 3.298157215118408 16.23008346557617 C 3.171967267990112 16.0119743347168 3.138267278671265 15.75776386260986 3.20329737663269 15.5142936706543 C 3.268307209014893 15.27084445953369 3.424247264862061 15.06727409362793 3.642377376556396 14.9411039352417 C 3.785937309265137 14.85810375213623 3.949047327041626 14.81426429748535 4.114137172698975 14.81426429748535 C 4.450127124786377 14.81426429748535 4.763257503509521 14.99477386474609 4.931347370147705 15.28536415100098 C 6.436007499694824 17.886474609375 9.235147476196289 19.5023136138916 12.23643684387207 19.5023136138916 C 16.88621711730957 19.5023136138916 20.66908645629883 15.71946430206299 20.66908645629883 11.06970405578613 C 20.66908645629883 6.419944286346436 16.88621711730957 2.637094020843506 12.23643684387207 2.637094020843506 C 9.235247611999512 2.637094020843506 6.436117172241211 4.252893924713135 4.931387424468994 6.853934288024902 C 4.763267517089844 7.144524097442627 4.450127124786377 7.32504415512085 4.114157199859619 7.32504415512085 C 3.949047327041626 7.32504415512085 3.785937309265137 7.281174182891846 3.642437219619751 7.198194026947021 C 3.192137241363525 6.937714099884033 3.037727355957031 6.359484195709229 3.298197269439697 5.909204006195068 C 4.19038724899292 4.366924285888672 5.474197387695313 3.073914051055908 7.010847091674805 2.169954061508179 C 8.589597702026367 1.241224050521851 10.39657688140869 0.7503240704536438 12.23643684387207 0.7503240704536438 C 14.99505710601807 0.7503240704536438 17.58711814880371 1.823164105415344 19.53511810302734 3.771214008331299 C 21.48306655883789 5.719223976135254 22.55585670471191 8.311203956604004 22.55585670471191 11.06970405578613 C 22.55585670471191 13.828293800354 21.48300743103027 16.42033386230469 19.53493690490723 18.36833381652832 C 17.58702659606934 20.31616592407227 14.99480533599854 21.38903427124023 12.2365140914917 21.38903427124023 Z"/><path class="e" d="M 12.23643684387207 1.050323486328125 C 8.541036605834961 1.050323486328125 5.295406341552734 3.055843353271484 3.557876586914063 6.059413909912109 C 3.37995719909668 6.36699390411377 3.48504638671875 6.760574340820313 3.792627334594727 6.938493728637695 C 3.89405632019043 6.997153282165527 4.004852294921875 7.025043487548828 4.114152908325195 7.025043487548828 C 4.336353302001953 7.025043487548828 4.552455902099609 6.909834861755371 4.671707153320313 6.703694343566895 C 6.183107376098633 4.091133117675781 9.007877349853516 2.337093353271484 12.23643684387207 2.337093353271484 C 17.05162811279297 2.337093353271484 20.96908760070801 6.254484176635742 20.96908760070801 11.06970405578613 C 20.96908760070801 15.88491439819336 17.05162811279297 19.80231475830078 12.23643684387207 19.80231475830078 C 9.00590705871582 19.80231475830078 6.182037353515625 18.04656410217285 4.671667098999023 15.43557357788086 C 4.552431106567383 15.22944450378418 4.336296081542969 15.11425971984863 4.114139556884766 15.11425971984863 C 4.004800796508789 15.11425971984863 3.894050598144531 15.14212989807129 3.792587280273438 15.20078468322754 C 3.485006332397461 15.37870407104492 3.379877090454102 15.77228355407715 3.557836532592773 16.07986450195313 C 5.295797348022461 19.0843334197998 8.541986465454102 21.08903503417969 12.23643684387207 21.08903503417969 C 17.77419662475586 21.08908462524414 22.25585746765137 16.60786437988281 22.25585746765137 11.06970405578613 C 22.25585746765137 5.531923294067383 17.77466773986816 1.050323486328125 12.23643684387207 1.050323486328125 M 12.23643684387207 0.4503231048583984 C 15.07519721984863 0.4503231048583984 17.74258804321289 1.554374694824219 19.74725723266602 3.559083938598633 C 21.75186729431152 5.563753128051758 22.85585784912109 8.231074333190918 22.85585784912109 11.06970405578613 C 22.85585784912109 13.90825366973877 21.75175666809082 16.5755729675293 19.7469367980957 18.58032417297363 C 17.74217796325684 20.58500480651855 15.07493686676025 21.68903350830078 12.23652744293213 21.68903350830078 C 10.34337711334229 21.68903350830078 8.483987808227539 21.18392372131348 6.859268188476563 20.22830390930176 C 5.277816772460938 19.29813385009766 3.956607818603516 17.96751403808594 3.038467407226563 16.38029479980469 C 2.872158050537109 16.09284400939941 2.827747344970703 15.75779342651367 2.913446426391602 15.43689346313477 C 2.999147415161133 15.11601448059082 3.204668045043945 14.84771347045898 3.492156982421875 14.6814136505127 C 3.681377410888672 14.57203388214111 3.896408081054688 14.51426410675049 4.114137649536133 14.51426410675049 C 4.556858062744141 14.51426410675049 4.969497680664063 14.75216388702393 5.19102668762207 15.13513374328613 C 6.642248153686523 17.64386367797852 9.341886520385742 19.20231437683105 12.23643684387207 19.20231437683105 C 16.72079849243164 19.20231437683105 20.36908721923828 15.55404472351074 20.36908721923828 11.06970405578613 C 20.36908721923828 6.58536434173584 16.72079849243164 2.937093734741211 12.23643684387207 2.937093734741211 C 9.341978073120117 2.937093734741211 6.64234733581543 4.495494842529297 5.191057205200195 7.004143714904785 C 4.969507217407227 7.387124061584473 4.556867599487305 7.625043869018555 4.114156723022461 7.625043869018555 C 3.896387100219727 7.625043869018555 3.681327819824219 7.567244529724121 3.492246627807617 7.457883834838867 C 2.898736953735352 7.114574432373047 2.695217132568359 6.352463722229004 3.038507461547852 5.758983612060547 C 3.956567764282227 4.171993255615234 5.277566909790039 2.841524124145508 6.858726501464844 1.911373138427734 C 8.483556747436523 0.9555435180664063 10.34313774108887 0.4503231048583984 12.23643684387207 0.4503231048583984 Z"/></g></g></g></g></svg>