<?xml version="1.0" standalone="no"?>
<!DOCTYPE svg PUBLIC "-//W3C//DTD SVG 1.1//EN" "http://www.w3.org/Graphics/SVG/1.1/DTD/svg11.dtd">
<svg id="S_PreviousArtboard_22" viewBox="0 0 22 22" version="1.1"
	xmlns="http://www.w3.org/2000/svg" xmlns:xlink="http://www.w3.org/1999/xlink" xml:space="preserve"
	x="0px" y="0px" width="22px" height="22px"
>
	<g id="Layer%201">
		<path d="M 2.0417 9.9607 C 1.762 10.2508 1.762 10.7215 2.052 11.0203 L 8.8694 17.7879 C 9.1692 18.0681 9.6399 18.0681 9.9387 17.7879 C 10.2288 17.4881 10.2288 17.0183 9.9387 16.7283 L 4.4619 11.3035 L 19.8293 11.3035 C 20.2437 11.3035 20.5793 10.9677 20.5793 10.5535 C 20.5793 10.1393 20.2437 9.8035 19.8293 9.8035 L 4.3418 9.8035 L 9.9231 4.3162 C 10.2131 4.0164 10.2131 3.5467 9.9231 3.2566 C 9.6243 2.9666 9.1536 2.9666 8.8538 3.2566 L 2.0417 9.9607 Z" fill="#ffffff"/>
	</g>
</svg>
