<svg xmlns="http://www.w3.org/2000/svg" xmlns:xlink="http://www.w3.org/1999/xlink" width="18" height="18" viewBox="0 0 18 18"><defs><style>.a{fill:#fff;}.b{clip-path:url(#a);}</style><clipPath id="a"><rect class="a" width="18" height="18"/></clipPath></defs><g class="b" transform="translate(0)"><path class="a" d="M9,0a9,9,0,1,0,9,9A9.01,9.01,0,0,0,9,0ZM9,16.364A7.364,7.364,0,1,1,16.364,9,7.372,7.372,0,0,1,9,16.364Z"/><path class="a" d="M9,3.818A1.091,1.091,0,1,0,10.091,4.91,1.092,1.092,0,0,0,9,3.818Z"/><path class="a" d="M9,7.636a.818.818,0,0,0-.818.818v4.909a.818.818,0,1,0,1.636,0V8.455A.818.818,0,0,0,9,7.636Z"/></g></svg>