<svg xmlns="http://www.w3.org/2000/svg" xmlns:xlink="http://www.w3.org/1999/xlink" width="32" height="32" viewBox="0 0 32 32"><defs><style>.a,.c{fill:#fff;}.a{stroke:#707070;}.b{clip-path:url(#a);}</style><clipPath id="a"><rect class="a" width="32" height="32"/></clipPath></defs><g class="b"><g transform="translate(0.842 0)"><path class="c" d="M18.526,32a1.618,1.618,0,0,1-1.184-.5L8.579,22.737H1.685a1.619,1.619,0,0,1-1.184-.5A1.619,1.619,0,0,1,0,21.052V10.947A1.618,1.618,0,0,1,.5,9.763a1.619,1.619,0,0,1,1.184-.5H8.579L17.342.5a1.654,1.654,0,0,1,2.369,0,1.62,1.62,0,0,1,.5,1.184V30.315A1.707,1.707,0,0,1,18.526,32Z"/><path class="c" d="M5.3,10.054A6.043,6.043,0,0,1,2.342,12.5a1.465,1.465,0,0,1-.657.132A1.641,1.641,0,0,1,.5,12.145a1.607,1.607,0,0,1-.5-1.2,1.416,1.416,0,0,1,.316-.934,3.068,3.068,0,0,1,.763-.658q.447-.276.895-.605a2.658,2.658,0,0,0,.763-.934,3.222,3.222,0,0,0,.316-1.5,3.223,3.223,0,0,0-.316-1.5,2.662,2.662,0,0,0-.763-.935q-.448-.328-.895-.6a3.07,3.07,0,0,1-.763-.658A1.417,1.417,0,0,1,0,1.684,1.606,1.606,0,0,1,.5.487,1.64,1.64,0,0,1,1.684,0a1.467,1.467,0,0,1,.657.131A6.217,6.217,0,0,1,5.3,2.591,6.709,6.709,0,0,1,6.421,6.315,6.785,6.785,0,0,1,5.3,10.054Z" transform="translate(23.894 9.684)"/></g></g></svg>