<svg xmlns="http://www.w3.org/2000/svg" xmlns:xlink="http://www.w3.org/1999/xlink" width="48" height="48" viewBox="0 0 48 48"><defs><style>.a{fill:#1778f2;}.b{clip-path:url(#a);}.c{fill:#fff;}</style><clipPath id="a"><rect class="a" width="48" height="48" transform="translate(200 256)"/></clipPath></defs><g class="b" transform="translate(-200 -256)"><circle class="c" cx="24" cy="24" r="24" transform="translate(200 256)"/><g transform="translate(200 256)"><path class="a" d="M23.325,39.74q-.3.049-.6.09Q23.025,39.789,23.325,39.74Zm0,0" transform="translate(4.545 7.948)"/><path class="a" d="M23.673,39.671l-.287.05Zm0,0" transform="translate(4.677 7.934)"/><path class="a" d="M22.394,39.87q-.351.04-.706.07Q22.043,39.91,22.394,39.87Zm0,0" transform="translate(4.338 7.974)"/><path class="a" d="M22.717,39.823c-.112.015-.226.029-.338.042C22.491,39.852,22.6,39.838,22.717,39.823Zm0,0" transform="translate(4.476 7.965)"/><path class="a" d="M24.212,39.563l-.253.053Zm0,0" transform="translate(4.792 7.913)"/><path class="a" d="M25.555,39.228l-.2.057Zm0,0" transform="translate(5.07 7.846)"/><path class="a" d="M25.149,39.339l-.223.058Zm0,0" transform="translate(4.985 7.868)"/><path class="a" d="M24.617,39.473l-.237.053Zm0,0" transform="translate(4.876 7.895)"/><path class="a" d="M21.745,39.929q-.19.016-.379.029Q21.556,39.945,21.745,39.929Zm0,0" transform="translate(4.273 7.986)"/><path class="a" d="M48,24A24,24,0,1,0,24,48c.141,0,.281,0,.422-.005V29.312H19.266V23.3h5.156V18.88c0-5.128,3.131-7.92,7.705-7.92a42.445,42.445,0,0,1,4.623.236v5.36H33.6c-2.489,0-2.971,1.183-2.971,2.918V23.3h5.951L35.8,29.312H30.625V47.073A24.013,24.013,0,0,0,48,24Zm0,0"/><path class="a" d="M21.447,39.955q-.375.024-.752.037Q21.072,39.98,21.447,39.955Zm0,0" transform="translate(4.139 7.991)"/><path class="a" d="M20.75,39.987q-.2.007-.4.01Q20.551,39.994,20.75,39.987Zm0,0" transform="translate(4.07 7.997)"/></g></g></svg>