<svg xmlns="http://www.w3.org/2000/svg" xmlns:xlink="http://www.w3.org/1999/xlink" width="48" height="48" viewBox="0 0 48 48"><defs><style>.a,.d{fill:#fff;}.a{stroke:#707070;}.b{clip-path:url(#a);}.c{fill:#f14336;}</style><clipPath id="a"><rect class="a" width="48" height="48" transform="translate(144 264)"/></clipPath></defs><g class="b" transform="translate(-144 -264)"><rect class="c" width="48" height="48" rx="24" transform="translate(144 264)"/><g transform="translate(153.6 273.6)"><path class="d" d="M6.383,18.268l-1,3.742-3.664.078A14.425,14.425,0,0,1,1.61,8.642h0l3.262.6L6.3,12.482a8.594,8.594,0,0,0,.081,5.786Z" transform="translate(0 -0.864)"/><path class="d" d="M30.184,13.011a14.395,14.395,0,0,1-5.133,13.92h0l-4.109-.21-.582-3.63a8.582,8.582,0,0,0,3.693-4.382h-7.7v-5.7H30.184Z" transform="translate(-1.635 -1.301)"/><path class="d" d="M23.6,27.563h0a14.4,14.4,0,0,1-21.7-4.405l4.667-3.82a8.564,8.564,0,0,0,12.341,4.385Z" transform="translate(-0.191 -1.934)"/><path class="d" d="M23.77,3.315,19.105,7.134A8.563,8.563,0,0,0,6.481,11.618L1.79,7.778h0A14.4,14.4,0,0,1,23.77,3.315Z" transform="translate(-0.179)"/></g></g></svg>