<svg xmlns="http://www.w3.org/2000/svg" xmlns:xlink="http://www.w3.org/1999/xlink" width="80" height="32" viewBox="0 0 80 32"><defs><style>.a,.c{fill:#2a2a2a;}.a{stroke:#707070;}.b{clip-path:url(#a);}</style><clipPath id="a"><rect class="a" width="80" height="32" transform="translate(24 726)"/></clipPath></defs><g class="b" transform="translate(-24 -726)"><g transform="translate(36.394 705.757)"><path class="c" d="M29.333,44.41l2.8-15.775H36.52L33.8,44.41Z" transform="translate(-9.089 -0.236)"/><path class="c" d="M29.333,44.41l3.593-15.775H36.52L33.8,44.41Z" transform="translate(-9.089 -0.236)"/><path class="c" d="M52.774,28.574a11.116,11.116,0,0,0-4.031-.7c-4.382,0-7.537,2.191-7.537,5.346,0,2.366,2.191,3.593,3.944,4.382s2.279,1.315,2.279,2.016c0,1.052-1.4,1.577-2.629,1.577a9.526,9.526,0,0,1-4.207-.876l-.613-.263-.613,3.593a14.21,14.21,0,0,0,5,.876c4.645,0,7.712-2.191,7.712-5.521,0-1.84-1.139-3.243-3.768-4.382-1.577-.789-2.542-1.227-2.542-2.016,0-.7.789-1.4,2.542-1.4a8.038,8.038,0,0,1,3.33.613l.438.175.7-3.418Z" transform="translate(-12.197)"/><path class="c" d="M52.774,28.574a11.116,11.116,0,0,0-4.031-.7c-4.382,0-6.748,2.191-6.748,5.346,0,2.366,1.4,3.593,3.155,4.382s2.279,1.315,2.279,2.016c0,1.052-1.4,1.577-2.629,1.577a9.526,9.526,0,0,1-4.207-.876l-.613-.263-.613,3.593a14.21,14.21,0,0,0,5,.876c4.645,0,7.712-2.191,7.712-5.521,0-1.84-1.139-3.243-3.768-4.382-1.577-.789-2.542-1.227-2.542-2.016,0-.7.789-1.4,2.542-1.4a8.038,8.038,0,0,1,3.33.613l.438.175.7-3.418Z" transform="translate(-12.197)"/><path class="c" d="M65.74,28.635c-1.052,0-1.84.088-2.279,1.139L56.889,44.41h4.733l.876-2.629h5.609l.526,2.629h4.207L69.158,28.635ZM63.725,39.152c.263-.789,1.753-4.645,1.753-4.645s.351-.964.613-1.577l.263,1.49s.876,3.944,1.052,4.82H63.725Z" transform="translate(-17.627 -0.236)"/><path class="c" d="M66.792,28.635c-1.052,0-1.84.088-2.279,1.139L56.889,44.41h4.733l.876-2.629h5.609l.526,2.629h4.207L69.158,28.635ZM63.725,39.152c.351-.876,1.753-4.645,1.753-4.645s.351-.964.613-1.577l.263,1.49s.876,3.944,1.052,4.82H63.725Z" transform="translate(-17.627 -0.236)"/><path class="c" d="M14.7,39.717l-.438-2.279a12.7,12.7,0,0,0-6.135-6.923l3.944,14.022H16.8l7.1-15.775H19.169Z" transform="translate(-2.518 -0.275)"/><path class="c" d="M14.7,39.717l-.438-2.279a12.7,12.7,0,0,0-6.135-6.923l3.944,14.022H16.8l7.1-15.775H20.046Z" transform="translate(-2.518 -0.275)"/><path class="c" d="M0,28.635l.789.175C6.4,30.125,10.254,33.455,11.744,37.4L10.166,29.95C9.9,28.9,9.114,28.635,8.15,28.635Z" transform="translate(0 -0.236)"/><path class="c" d="M0,28.635H0c5.609,1.315,10.254,4.732,11.744,8.676l-1.49-6.222a2.139,2.139,0,0,0-2.1-1.665Z" transform="translate(0 -0.236)"/><path class="c" d="M0,28.635H0c5.609,1.315,10.254,4.732,11.744,8.676l-1.052-3.418a3.091,3.091,0,0,0-1.84-2.542Z" transform="translate(0 -0.236)"/><g transform="translate(5.697 30.152)"><path class="c" d="M19.121,39.938l-2.98-2.98-1.4,3.33L14.389,38.1a12.7,12.7,0,0,0-6.135-6.923L12.2,45.2H16.93Z" transform="translate(-8.254 -31.175)"/><path class="c" d="M33.8,49.761,30.034,45.9l-.7,3.856Z" transform="translate(-14.785 -35.739)"/><path class="c" d="M46.99,43.619h0c.351.351.526.613.438.964,0,1.052-1.4,1.577-2.629,1.577a9.526,9.526,0,0,1-4.207-.876l-.613-.263-.613,3.593a14.21,14.21,0,0,0,5,.876c2.8,0,5.083-.789,6.4-2.191Z" transform="translate(-17.894 -35.03)"/><path class="c" d="M57.778,46.338H61.9l.876-2.629h5.609l.526,2.629h4.207l-1.49-6.4-5.258-5.083.263,1.4s.876,3.944,1.052,4.82H64c.351-.876,1.753-4.645,1.753-4.645s.351-.964.613-1.577" transform="translate(-23.599 -32.316)"/></g></g></g></svg>