<svg xmlns="http://www.w3.org/2000/svg" xmlns:xlink="http://www.w3.org/1999/xlink" width="64" height="64" viewBox="0 0 64 64"><defs><style>.a,.c{fill:#fff;}.a{stroke:#707070;}.b{clip-path:url(#a);}.d{fill:#2a2a2a;}</style><clipPath id="a"><rect class="a" width="64" height="64" transform="translate(2231 126)"/></clipPath></defs><g class="b" transform="translate(-2231 -126)"><g transform="translate(2247 142)"><rect class="c" width="32" height="32" rx="4"/><g transform="translate(7.467 10.133)"><path class="d" d="M15.35,21.45H12.061a4.182,4.182,0,0,1-4.178-4.178V13.895a4.182,4.182,0,0,1,4.178-4.178H15.35V11.85H12.061a2.048,2.048,0,0,0-2.045,2.045v3.377a2.048,2.048,0,0,0,2.045,2.045H15.35Z" transform="translate(-7.883 -9.717)"/><path class="d" d="M21.95,21.45H18.661a4.182,4.182,0,0,1-4.178-4.178V13.895a4.182,4.182,0,0,1,4.178-4.178H21.95V11.85H18.661a2.048,2.048,0,0,0-2.045,2.045v3.377a2.048,2.048,0,0,0,2.045,2.045H21.95Z" transform="translate(-4.883 -9.717)"/></g></g></g></svg>