<svg xmlns="http://www.w3.org/2000/svg" xmlns:xlink="http://www.w3.org/1999/xlink" width="44" height="44" viewBox="0 0 44 44"><defs><style>.a,.c,.d{fill:#fff;}.a{stroke:#707070;}.b{clip-path:url(#a);}.d{font-size:14px;font-family:SegoeUI, Segoe UI;}</style><clipPath id="a"><rect class="a" width="44" height="44" transform="translate(2003 280)"/></clipPath></defs><g class="b" transform="translate(-2003 -280)"><g transform="translate(2003 280)"><path class="c" d="M39.8,23.062a1.571,1.571,0,0,0-1.571,1.57A16.227,16.227,0,1,1,20.43,8.485V12.1a1.57,1.57,0,0,0,2.355,1.36L31.9,8.2a1.57,1.57,0,0,0,0-2.72L22.785.21A1.57,1.57,0,0,0,20.43,1.57V5.334a19.365,19.365,0,1,0,20.938,19.3A1.57,1.57,0,0,0,39.8,23.062Z"/></g><text class="d" transform="translate(2018 310)"><tspan x="0" y="0">10</tspan></text></g></svg>