<svg xmlns="http://www.w3.org/2000/svg" xmlns:xlink="http://www.w3.org/1999/xlink" width="44" height="44" viewBox="0 0 44 44"><defs><style>.a,.c,.d{fill:#fff;}.a{stroke:#707070;}.b{clip-path:url(#a);}.d{font-size:14px;font-family:SegoeUI, Segoe UI;}</style><clipPath id="a"><rect class="a" width="44" height="44"/></clipPath></defs><g class="b"><g transform="translate(2.632 0)"><path class="c" d="M4.2,23.062a1.571,1.571,0,0,1,1.571,1.57,16.227,16.227,0,1,0,17.8-16.148V12.1a1.57,1.57,0,0,1-2.355,1.36L12.1,8.2a1.57,1.57,0,0,1,0-2.72L21.215.21a1.57,1.57,0,0,1,2.355,1.36V5.334a19.365,19.365,0,1,1-20.938,19.3A1.57,1.57,0,0,1,4.2,23.062Z" transform="translate(-2.632 0)"/></g><text class="d" transform="translate(15 30)"><tspan x="0" y="0">10</tspan></text></g></svg>